<svg width="192" height="62" viewBox="0 0 192 62" fill="none" xmlns="http://www.w3.org/2000/svg">
<g clip-path="url(#clip0_119_755)">
<path d="M67.0346 24.1607C67.0346 24.1607 62.1786 24.5089 62.1786 21.7503C62.1786 19.0792 65.6106 19.3368 65.9446 19.3368C70.1317 19.3368 73.0627 21.6647 73.0627 21.6647V16.0638L71.8897 17.183C71.8897 17.183 67.8696 15.9773 65.6106 15.9773C63.3496 15.9773 57.6565 17.0965 57.6565 22.4397C57.6565 27.7819 64.3546 27.6078 64.8556 27.6078C65.3586 27.6078 69.3686 27.3501 69.4617 30.0222C69.5457 32.4337 66.5306 32.5665 65.1906 32.5202C60.2505 32.3471 57.9915 29.2442 57.9915 29.2442V35.7932L59.4135 34.5009C59.4135 34.5009 61.1715 36.0528 65.5256 36.0528C69.8807 36.0528 74.0667 34.4133 74.0667 29.5915C74.0677 24.2493 67.0346 24.1607 67.0346 24.1607Z" fill="white"/>
<path d="M86.0419 18.4763L87.2139 17.0119H80.6828L81.7728 18.3052V34.2422L80.2638 35.619H87.2979L86.0419 34.1577V18.4763Z" fill="white"/>
<path d="M114.844 17.2706H108.316L109.654 18.3897V28.4703L100.944 17.2706H95.085L95.837 18.0435V34.2432L94.163 35.7066H100.944L99.9401 34.4133V22.957L109.069 35.7066H114.51L113.59 34.5009V18.4763L114.844 17.2706Z" fill="white"/>
<path d="M134.706 28.0386V30.5365C134.706 30.5365 134.036 33.1221 130.771 33.1221C127.506 33.1221 124.742 31.5692 124.742 26.4001C124.742 21.234 128.846 20.1138 130.519 20.1138C134.789 20.1138 137.301 22.957 137.301 22.957V17.2706L136.381 18.2187C136.381 18.2187 133.954 16.8398 130.856 16.8398C127.757 16.8398 120.89 17.7879 120.89 26.8328C120.89 35.8798 129.18 36.4826 130.604 36.4826C136.55 36.4826 138.475 32.8634 138.475 32.8634V28.2117L139.73 26.6617H133.449L134.706 28.0386Z" fill="white"/>
<path d="M151.202 32.6923V28.3837H158.403L159.824 29.675V23.5609L158.483 24.9377H151.202V20.8888H159.658L161.165 22.4387V17.4427H146.01L147.015 18.4763V34.8441L145.759 36.2229H161.918V31.0548L160.327 32.6923H151.202Z" fill="white"/>
<path d="M179.669 26.0589H173.976V21.0629H179.418C179.418 21.0629 181.758 20.8898 181.844 23.4733C181.929 26.0589 179.669 26.0589 179.669 26.0589ZM187.625 36.1374L185.95 34.9317L182.188 29.0832C183.895 28.4985 186.117 27.1066 186.117 23.8165C186.117 17.7869 180.673 17.4427 180.673 17.4427H168.196L169.62 18.9071V34.8431L168.7 36.1374H174.978L174.059 34.672V29.5029H177.465L181.091 35.0172L180.338 36.1374H187.625Z" fill="white"/>
<path fill-rule="evenodd" clip-rule="evenodd" d="M188.557 17.9973C188.054 17.9973 187.62 18.2539 187.371 18.6897C187.232 18.9302 187.167 19.1788 187.167 19.4365C187.167 19.8078 187.305 20.1631 187.567 20.4369C187.836 20.7177 188.184 20.8707 188.558 20.8707C188.919 20.8707 189.272 20.7247 189.545 20.452C189.81 20.1883 189.956 19.832 189.956 19.4375C189.956 19.054 189.817 18.6987 189.56 18.43C189.291 18.1482 188.94 17.9973 188.557 17.9973ZM188.56 18.2358C188.884 18.2358 189.166 18.3576 189.394 18.5951C189.612 18.8235 189.724 19.1134 189.724 19.4566C189.724 19.7646 189.601 20.0645 189.383 20.2829C189.151 20.5083 188.859 20.6341 188.557 20.6341C188.249 20.6341 187.955 20.5033 187.732 20.2708C187.512 20.0444 187.397 19.7485 187.397 19.4324C187.397 19.1164 187.523 18.8074 187.751 18.5739C187.969 18.3495 188.246 18.2358 188.56 18.2358ZM187.98 18.6102V20.2034H188.357V19.5502H188.542L188.837 20.2034H189.255L188.91 19.4918C189.121 19.4365 189.248 19.2785 189.248 19.0691C189.248 18.7652 189.029 18.6112 188.587 18.6112H187.98V18.6102ZM188.357 18.8558H188.522C188.748 18.8558 188.859 18.9272 188.859 19.0933C188.859 19.2513 188.756 19.3177 188.542 19.3177H188.357V18.8558Z" fill="white"/>
<path d="M10.0877 25.3493C10.0877 17.9429 13.7393 11.5761 18.9263 8.87482L17.6683 6.22485C11.4591 9.39918 7.0979 16.7764 7.0979 25.3493C7.0979 27.9419 7.49768 30.4278 8.2264 32.7175L11.0411 31.7433C10.4257 29.7575 10.0877 27.6017 10.0877 25.3493Z" fill="#A9B2BE"/>
<mask id="mask0_119_755" style="mask-type:luminance" maskUnits="userSpaceOnUse" x="17" y="4" width="21" height="10">
<path d="M17.6683 6.22487L18.9263 8.87484C20.6358 7.98514 22.5122 7.49098 24.4797 7.49098C28.6111 7.49098 32.3438 9.6659 34.9702 13.1391L37.6178 11.7543C34.4277 7.35008 29.7214 4.56122 24.4797 4.56122C22.0628 4.56122 19.7613 5.15502 17.6683 6.22487Z" fill="white"/>
</mask>
<g mask="url(#mask0_119_755)">
<path d="M37.6178 4.56122H17.6683V13.1391H37.6178V4.56122Z" fill="url(#paint0_radial_119_755)"/>
</g>
<mask id="mask1_119_755" style="mask-type:luminance" maskUnits="userSpaceOnUse" x="7" y="8" width="11" height="18">
<path d="M9.77486 15.1722C7.57556 19.8169 7.07356 24.2241 8.65649 25.0182C10.2384 25.8113 13.3041 22.6893 15.5034 18.0456C17.7037 13.4008 18.2047 8.99259 16.6217 8.19951C16.4568 8.11799 16.2756 8.07672 16.0793 8.07672C14.4083 8.07773 11.7444 11.0155 9.77486 15.1722Z" fill="white"/>
</mask>
<g mask="url(#mask1_119_755)">
<path d="M9.21009 3.56683L24.9918 11.4815L16.0681 30.3222L0.286377 22.4075L9.21009 3.56683Z" fill="url(#paint1_radial_119_755)"/>
</g>
<mask id="mask2_119_755" style="mask-type:luminance" maskUnits="userSpaceOnUse" x="24" y="11" width="18" height="36">
<path d="M34.9702 13.1391C37.3871 16.3356 38.8698 20.6311 38.8698 25.3493C38.8698 35.1943 32.4176 43.2036 24.4858 43.2087V46.1364V46.1394C34.0674 46.1364 41.8606 36.8107 41.8606 25.3483C41.8606 20.156 40.2594 15.3996 37.6178 11.7532L34.9702 13.1391Z" fill="white"/>
</mask>
<g mask="url(#mask2_119_755)">
<path d="M24.6892 48.0748L20.908 12.1579L41.6571 9.81989L45.4373 45.7379L24.6892 48.0748Z" fill="url(#paint2_linear_119_755)"/>
</g>
<mask id="mask3_119_755" style="mask-type:luminance" maskUnits="userSpaceOnUse" x="8" y="31" width="17" height="16">
<path d="M8.22534 32.7175C10.7171 40.5557 17.062 46.1404 24.4787 46.1404H24.4858V43.2087H24.4787C18.3575 43.2087 13.1189 38.4432 11.041 31.7443L8.22534 32.7175Z" fill="white"/>
</mask>
<g mask="url(#mask3_119_755)">
<path d="M18.1338 54.348L1.43616 40.5174L14.5763 23.5367L31.274 37.3672L18.1338 54.348Z" fill="url(#paint3_linear_119_755)"/>
</g>
<path d="M26.8551 42.795H22.7642V44.8774H26.8551V42.795Z" fill="#838C94"/>
<mask id="mask4_119_755" style="mask-type:luminance" maskUnits="userSpaceOnUse" x="33" y="9" width="9" height="22">
<path d="M33.2638 12.034C36.3902 15.2023 38.3901 20.0202 38.3901 25.4107C38.3901 26.9103 38.2363 28.3636 37.9438 29.7565L40.7584 30.3825C41.0975 28.7903 41.2786 27.1237 41.2786 25.4107C41.2786 19.1395 38.8638 13.5316 35.0906 9.84302L33.2638 12.034Z" fill="white"/>
</mask>
<g mask="url(#mask4_119_755)">
<path d="M33.5057 31.8006L29.8692 10.462L41.0378 8.42395L44.6753 29.7626L33.5057 31.8006Z" fill="url(#paint4_linear_119_755)"/>
</g>
<mask id="mask5_119_755" style="mask-type:luminance" maskUnits="userSpaceOnUse" x="20" y="29" width="21" height="17">
<path d="M24.4797 42.6733C23.5364 42.6733 22.6164 42.5555 21.7278 42.3321L20.9465 45.0555C22.0851 45.3494 23.2672 45.5044 24.4797 45.5044C32.3083 45.5044 38.9052 39.0662 40.7594 30.3816L37.9447 29.7556C36.3871 37.1761 30.941 42.6733 24.4797 42.6733Z" fill="white"/>
</mask>
<g mask="url(#mask5_119_755)">
<path d="M21.5436 49.0109L18.3423 30.2306L40.1613 26.2501L43.3625 45.0304L21.5436 49.0109Z" fill="url(#paint5_linear_119_755)"/>
</g>
<mask id="mask6_119_755" style="mask-type:luminance" maskUnits="userSpaceOnUse" x="11" y="36" width="11" height="10">
<path d="M11.1746 37.6672C13.5612 41.3638 16.9972 44.042 20.9455 45.0555L21.7268 42.332C18.4112 41.5037 15.5176 39.205 13.5075 36.0106L11.1746 37.6672Z" fill="white"/>
</mask>
<g mask="url(#mask6_119_755)">
<path d="M11.4934 46.9224L9.67975 36.2833L21.409 34.1436L23.2217 44.7827L11.4934 46.9224Z" fill="url(#paint6_linear_119_755)"/>
</g>
<mask id="mask7_119_755" style="mask-type:luminance" maskUnits="userSpaceOnUse" x="33" y="9" width="9" height="22">
<path d="M33.278 12.0009C36.4114 15.1752 38.4154 20.0051 38.4154 25.4037C38.4154 26.9073 38.2615 28.3667 37.9691 29.7576L40.4669 30.3876C40.807 28.7914 41.1015 27.1227 41.1015 25.4037C41.1015 18.7732 38.8931 13.5005 35.1089 9.80481L33.278 12.0009Z" fill="white"/>
</mask>
<g mask="url(#mask7_119_755)">
<path d="M33.8012 32.4126L28.3035 11.1846L40.5772 7.78186L46.075 29.0098L33.8012 32.4126Z" fill="url(#paint7_linear_119_755)"/>
</g>
<mask id="mask8_119_755" style="mask-type:luminance" maskUnits="userSpaceOnUse" x="20" y="29" width="21" height="17">
<path d="M37.9691 29.7585C36.4084 37.1982 30.9501 42.7034 24.4757 42.7034C23.5314 42.7034 22.6094 42.5857 21.7177 42.3633L20.9333 45.0927C22.076 45.3846 23.2602 45.5426 24.4757 45.5426C32.3215 45.5426 38.6087 39.0893 40.4669 30.3876L37.9721 29.7585H37.9691Z" fill="white"/>
</mask>
<g mask="url(#mask8_119_755)">
<path d="M40.4669 29.7585H20.9333V45.5426H40.4669V29.7585Z" fill="url(#paint8_radial_119_755)"/>
</g>
<mask id="mask9_119_755" style="mask-type:luminance" maskUnits="userSpaceOnUse" x="11" y="36" width="11" height="10">
<path d="M11.1422 37.6883C13.5338 41.391 16.978 44.0762 20.9333 45.0917L21.7157 42.3632C18.3929 41.5309 15.4932 39.2302 13.4802 36.0287L11.1422 37.6883Z" fill="white"/>
</mask>
<g mask="url(#mask9_119_755)">
<path d="M17.9496 50.3313L6.94702 41.8641L14.9092 30.7902L25.9118 39.2584L17.9496 50.3313Z" fill="url(#paint9_linear_119_755)"/>
</g>
<mask id="mask10_119_755" style="mask-type:luminance" maskUnits="userSpaceOnUse" x="7" y="4" width="185" height="43">
<path d="M192 4.31158H7.07361V46.9949H192V4.31158Z" fill="white"/>
</mask>
<g mask="url(#mask10_119_755)">
<g opacity="0.4">
<mask id="mask11_119_755" style="mask-type:luminance" maskUnits="userSpaceOnUse" x="9" y="6" width="31" height="38">
<path d="M39.5105 6.91125H9.44696V43.8588H39.5105V6.91125Z" fill="white"/>
</mask>
<g mask="url(#mask11_119_755)">
<mask id="mask12_119_755" style="mask-type:luminance" maskUnits="userSpaceOnUse" x="9" y="6" width="31" height="38">
<path d="M39.5146 6.91125H9.44403V43.8588H39.5146V6.91125Z" fill="white"/>
</mask>
<g mask="url(#mask12_119_755)">
<path d="M24.4788 6.91125C16.1876 6.91125 9.44299 15.1973 9.44299 25.3835C9.44299 35.5708 16.1876 43.8588 24.4788 43.8588C32.7689 43.8588 39.5136 35.5698 39.5136 25.3835C39.5146 15.1973 32.7689 6.91125 24.4788 6.91125ZM24.4788 43.4613C16.4012 43.4613 9.8286 35.3524 9.8286 25.3835C9.8286 15.4167 16.4012 7.3088 24.4788 7.3088C32.5564 7.3088 39.128 15.4167 39.128 25.3835C39.128 35.3514 32.5574 43.4613 24.4788 43.4613Z" fill="white"/>
</g>
</g>
</g>
</g>
<mask id="mask13_119_755" style="mask-type:luminance" maskUnits="userSpaceOnUse" x="7" y="4" width="185" height="43">
<path d="M192 4.31158H7.07361V46.9949H192V4.31158Z" fill="white"/>
</mask>
<g mask="url(#mask13_119_755)">
<path d="M24.4787 43.5589C16.3475 43.5589 9.7324 35.4067 9.7324 25.3835C9.7324 15.3623 16.3475 7.20913 24.4787 7.20913C32.609 7.20913 39.2241 15.3623 39.2241 25.3835C39.2251 35.4057 32.61 43.5589 24.4787 43.5589ZM39.4174 25.3835C39.4174 15.2526 32.7162 7.01086 24.4787 7.01086C16.2412 7.01086 9.5401 15.2536 9.5401 25.3835C9.5401 35.5154 16.2412 43.7582 24.4787 43.7582C32.7162 43.7572 39.4174 35.5154 39.4174 25.3835Z" fill="white"/>
</g>
<mask id="mask14_119_755" style="mask-type:luminance" maskUnits="userSpaceOnUse" x="10" y="8" width="29" height="35">
<path d="M10.6514 25.3503C10.6514 34.9005 16.8545 42.6672 24.4787 42.6672C32.1029 42.6672 38.3061 34.9005 38.3061 25.3503C38.3061 15.8012 32.1039 8.03345 24.4787 8.03345C16.8535 8.03345 10.6514 15.8022 10.6514 25.3503Z" fill="white"/>
</mask>
<g mask="url(#mask14_119_755)">
<path d="M38.3051 8.03442H10.6504V42.6682H38.3051V8.03442Z" fill="url(#paint10_linear_119_755)"/>
</g>
<mask id="mask15_119_755" style="mask-type:luminance" maskUnits="userSpaceOnUse" x="13" y="13" width="26" height="30">
<path d="M36.3953 23.2015C36.3953 32.6702 30.4937 40.3725 23.2399 40.3725C19.7381 40.3725 16.4285 38.574 14.0106 35.6533L13.6088 35.8133C16.1471 39.8813 20.1965 42.5082 24.5951 42.5082C32.0867 42.5082 38.1826 34.8753 38.1826 25.4892C38.1826 20.5576 36.71 16.1121 34.0269 13.0012C35.6463 15.8545 36.3953 19.3831 36.3953 23.2015Z" fill="white"/>
</mask>
<g mask="url(#mask15_119_755)">
<path d="M0.113403 32.5232L21.9232 0.971191L51.677 22.9841L29.8672 54.5362L0.113403 32.5232Z" fill="url(#paint11_linear_119_755)"/>
</g>
<mask id="mask16_119_755" style="mask-type:luminance" maskUnits="userSpaceOnUse" x="13" y="11" width="22" height="29">
<path d="M30.8135 11.3396C31.0615 14.4435 28.8085 20.2174 24.6144 25.921C20.7056 31.239 16.2989 35.0011 13.298 35.8807C14.218 37.2938 15.3425 38.4331 16.553 39.6046C20.1712 39.6046 25.3937 35.8837 29.5271 29.9981C33.613 24.1828 35.4175 17.9942 34.366 14.4384C34.366 14.4384 33.2284 12.5966 31.2477 11.1544C31.2477 11.1544 31.0837 11.0115 30.9562 11.0115C30.8651 11.0105 30.7922 11.0839 30.8135 11.3396Z" fill="white"/>
</mask>
<g mask="url(#mask16_119_755)">
<path d="M48.7156 21.4202L27.3652 50.6151L0 29.1949L21.3503 0L48.7156 21.4202Z" fill="url(#paint12_linear_119_755)"/>
</g>
<mask id="mask17_119_755" style="mask-type:luminance" maskUnits="userSpaceOnUse" x="10" y="7" width="29" height="36">
<path d="M10.8659 25.3503C10.8659 15.939 16.9719 8.28202 24.4777 8.28202C31.9845 8.28202 38.0895 15.939 38.0895 25.3503C38.0895 34.7636 31.9845 42.4186 24.4777 42.4186C16.9719 42.4186 10.8659 34.7636 10.8659 25.3503ZM10.5056 25.3503C10.5056 35.0001 16.7736 42.8484 24.4787 42.8484C32.1828 42.8484 38.4508 35.0001 38.4508 25.3503C38.4508 15.7005 32.1828 7.85327 24.4787 7.85327C16.7726 7.85327 10.5056 15.7015 10.5056 25.3503Z" fill="white"/>
</mask>
<g mask="url(#mask17_119_755)">
<path d="M38.4508 7.85327H10.5056V42.8494H38.4508V7.85327Z" fill="url(#paint13_linear_119_755)"/>
</g>
<mask id="mask18_119_755" style="mask-type:luminance" maskUnits="userSpaceOnUse" x="9" y="7" width="30" height="37">
<path d="M10.5056 25.3503C10.5056 15.7005 16.7736 7.85328 24.4797 7.85328C32.1839 7.85328 38.4518 15.7015 38.4518 25.3503C38.4518 35.0001 32.1839 42.8494 24.4797 42.8494C16.7726 42.8494 10.5056 35.0001 10.5056 25.3503ZM9.98541 25.1692V25.5315C10.0633 35.3534 16.5357 43.3143 24.4787 43.3143C32.4693 43.3143 38.971 35.2557 38.971 25.3503C38.971 15.4449 32.4703 7.38629 24.4787 7.38629C16.5357 7.38629 10.0644 15.3473 9.98541 25.1692Z" fill="white"/>
</mask>
<g mask="url(#mask18_119_755)">
<path d="M38.971 7.38629H9.98541V43.3143H38.971V7.38629Z" fill="url(#paint14_linear_119_755)"/>
</g>
<mask id="mask19_119_755" style="mask-type:luminance" maskUnits="userSpaceOnUse" x="7" y="4" width="185" height="43">
<path d="M192 4.31158H7.07361V46.9949H192V4.31158Z" fill="white"/>
</mask>
<g mask="url(#mask19_119_755)">
<path d="M24.4788 7.4859C16.5398 7.4859 10.0816 15.4992 10.0816 25.3493C10.0816 35.2014 16.5388 43.2157 24.4788 43.2157C32.4177 43.2157 38.8759 35.2014 38.8759 25.3493C38.8759 15.5002 32.4177 7.4859 24.4788 7.4859ZM24.4788 42.5202C16.9184 42.5202 10.7688 34.8199 10.7688 25.3493C10.7688 15.8827 16.9184 8.18135 24.4788 8.18135C32.0382 8.18135 38.1877 15.8837 38.1877 25.3493C38.1877 34.8199 32.0382 42.5202 24.4788 42.5202Z" fill="#231F20"/>
</g>
<mask id="mask20_119_755" style="mask-type:luminance" maskUnits="userSpaceOnUse" x="7" y="4" width="185" height="43">
<path d="M192 4.31158H7.07361V46.9949H192V4.31158Z" fill="white"/>
</mask>
<g mask="url(#mask20_119_755)">
<path d="M16.9355 28.5257L16.639 28.1201V34.1295C17.8161 33.2962 19.0721 32.2173 20.3463 30.9391C18.0529 30.0142 16.9507 28.5468 16.9355 28.5257Z" fill="white"/>
</g>
<mask id="mask21_119_755" style="mask-type:luminance" maskUnits="userSpaceOnUse" x="7" y="4" width="185" height="43">
<path d="M192 4.31158H7.07361V46.9949H192V4.31158Z" fill="white"/>
</mask>
<g mask="url(#mask21_119_755)">
<path d="M26.2742 23.5065C25.918 23.4713 25.6973 23.4662 25.6842 23.4662H25.671C25.6437 23.4693 22.7956 23.6565 21.5963 22.5061C21.2481 22.1699 21.0791 21.7643 21.0791 21.2672C21.0791 20.6874 21.2572 20.2144 21.6095 19.8612C21.9991 19.4717 22.822 19.0157 24.5253 19.0651L24.6144 19.0671C26.0627 19.0671 27.3602 19.3599 28.429 19.7333C29.0039 18.582 29.4796 17.4749 29.852 16.4372C28.6628 16.1081 26.003 15.4308 24.2855 15.4308C21.5265 15.4308 16.3111 16.7915 16.3111 21.9435C16.3111 23.2891 16.7352 24.4053 17.5702 25.2597C19.2938 27.022 22.2906 27.1941 23.4991 27.1861C23.5335 27.1861 23.6175 27.184 23.6529 27.184C23.9768 26.7724 24.2986 26.3517 24.6164 25.9189C25.2085 25.1148 25.7611 24.3086 26.2742 23.5065Z" fill="white"/>
</g>
<mask id="mask22_119_755" style="mask-type:luminance" maskUnits="userSpaceOnUse" x="7" y="4" width="185" height="43">
<path d="M192 4.31158H7.07361V46.9949H192V4.31158Z" fill="white"/>
</mask>
<g mask="url(#mask22_119_755)">
<path d="M29.5292 29.9981C28.0302 32.1327 26.3876 33.9775 24.7308 35.4681C27.507 35.3765 32.7507 34.4707 32.7507 28.9664C32.7507 27.7899 32.4136 26.867 31.8863 26.1414C31.2153 27.4226 30.4279 28.7189 29.5292 29.9981Z" fill="white"/>
</g>
<mask id="mask23_119_755" style="mask-type:luminance" maskUnits="userSpaceOnUse" x="28" y="15" width="4" height="7">
<path d="M31.4875 15.5617C31.4875 15.5617 30.525 16.4816 30.4046 16.5953C30.3145 16.5691 30.1192 16.5128 29.851 16.4393C29.4775 17.4769 29.0018 18.584 28.4269 19.7354C30.3105 20.3926 31.4805 21.3034 31.4997 21.3175L31.7628 21.5279V15.298L31.4875 15.5617Z" fill="white"/>
</mask>
<g mask="url(#mask23_119_755)">
<path d="M30.5757 23.1794L25.5445 19.3076L29.6172 13.6454L34.6473 17.5172L30.5757 23.1794Z" fill="url(#paint15_linear_119_755)"/>
</g>
<mask id="mask24_119_755" style="mask-type:luminance" maskUnits="userSpaceOnUse" x="16" y="23" width="16" height="13">
<path d="M24.6153 25.92C24.2975 26.3538 23.9757 26.7734 23.6518 27.1851H23.671C26.3865 27.1257 27.848 27.8906 27.9006 29.3952C27.9199 29.9528 27.7569 30.4148 27.4128 30.768C26.5758 31.6316 24.838 31.704 23.8765 31.6718C22.4818 31.6235 21.3088 31.3276 20.3443 30.9381C19.071 32.2173 17.815 33.2962 16.6379 34.1296V35.4299C16.6379 35.4299 18.0336 34.1618 18.2067 34.0037C18.6581 34.3379 20.4637 35.4762 24.2014 35.4762C24.3633 35.4762 24.5404 35.4732 24.7297 35.4671C26.3875 33.9766 28.0302 32.1318 29.5281 29.9971C30.4258 28.7179 31.2142 27.4226 31.8853 26.1404C30.4278 24.1315 27.5211 23.6303 26.2721 23.5065C25.761 24.3077 25.2084 25.1148 24.6153 25.92Z" fill="white"/>
</mask>
<g mask="url(#mask24_119_755)">
<path d="M26.4533 43.0326L11.0977 31.2129L22.0709 15.9532L37.4265 27.7729L26.4533 43.0326Z" fill="url(#paint16_linear_119_755)"/>
</g>
<path d="M14.13 57.472V57.4468C14.13 55.7369 12.878 54.3148 11.12 54.3148C9.36196 54.3148 8.13529 55.7107 8.13529 57.4217V57.4468C8.13529 59.1568 9.38727 60.5779 11.1453 60.5779C12.9033 60.5779 14.13 59.1819 14.13 57.472ZM6.50378 57.472V57.4468C6.50378 54.969 8.42577 52.8937 11.1453 52.8937C13.8648 52.8937 15.7625 54.9438 15.7625 57.4217V57.4468C15.7625 59.9237 13.8405 62 11.12 62C8.40047 62 6.50378 59.9489 6.50378 57.472Z" fill="white"/>
<path d="M23.8421 57.4086C24.9544 57.4086 25.6629 56.8299 25.6629 55.9371V55.912C25.6629 54.9679 24.9797 54.4526 23.829 54.4526H21.5649V57.4086H23.8421ZM20.0093 53.0446H23.9555C25.0678 53.0446 25.9412 53.3717 26.51 53.9253C26.9776 54.4033 27.2438 55.0565 27.2438 55.8244V55.8496C27.2438 57.2958 26.3714 58.1644 25.1315 58.5156L27.5211 61.848H25.6872L23.5122 58.7793H21.5639V61.848H20.0093V53.0446Z" fill="white"/>
<path d="M33.3255 53.0447H31.7699V61.8481H33.3255V53.0447Z" fill="white"/>
<path d="M37.4863 57.472V57.4468C37.4863 54.982 39.3829 52.8937 42.0519 52.8937C43.5953 52.8937 44.5437 53.3214 45.4535 54.0893L44.4678 55.2588C43.7846 54.6801 43.1146 54.3158 41.9891 54.3158C40.3566 54.3158 39.1178 55.7379 39.1178 57.4227V57.4478C39.1178 59.2594 40.3191 60.592 42.1278 60.592C42.9628 60.592 43.7218 60.3273 44.2653 59.9257V58.2782H42.0023V56.9325H45.7703V60.6292C44.8979 61.372 43.6459 62.001 42.0782 62.001C39.307 62 37.4863 60.0374 37.4863 57.472Z" fill="white"/>
<path d="M51.9654 53.0447H50.4098V61.8481H51.9654V53.0447Z" fill="white"/>
<path d="M56.6443 53.0447H58.0856L62.8283 59.1327V53.0447H64.3586V61.8481H63.056L58.1746 55.5849V61.8481H56.6443V53.0447Z" fill="white"/>
<path d="M74.0718 58.3527L72.5415 54.8311L71.0233 58.3527H74.0718ZM71.8452 52.9813H73.2864L77.182 61.848H75.5383L74.6406 59.7224H70.4545L69.5436 61.848H67.9496L71.8452 52.9813Z" fill="white"/>
<path d="M80.9622 53.0447H82.5178V60.439H87.1724V61.8481H80.9622V53.0447Z" fill="white"/>
<path d="M97.0475 60.5658L97.9837 59.4587C98.8309 60.1884 99.678 60.6041 100.779 60.6041C101.74 60.6041 102.347 60.1642 102.347 59.497V59.4718C102.347 58.8428 101.993 58.5036 100.349 58.1262C98.4645 57.6733 97.4028 57.1208 97.4028 55.4974V55.4732C97.4028 53.9635 98.6669 52.9199 100.426 52.9199C101.715 52.9199 102.74 53.3094 103.638 54.0259L102.803 55.1954C102.006 54.6046 101.209 54.2906 100.4 54.2906C99.4887 54.2906 98.9574 54.7566 98.9574 55.3353V55.3595C98.9574 56.0388 99.3622 56.3398 101.057 56.7433C102.929 57.1962 103.904 57.8625 103.904 59.3219V59.347C103.904 60.9946 102.6 61.9758 100.742 61.9758C99.3875 61.9748 98.1092 61.5089 97.0475 60.5658Z" fill="white"/>
<path d="M109.77 53.0447H108.214V61.8481H109.77V53.0447Z" fill="white"/>
<path d="M114.525 53.0447H115.967L120.708 59.1327V53.0447H122.239V61.8481H120.937L116.055 55.5849V61.8481H114.525V53.0447Z" fill="white"/>
<path d="M126.172 57.472V57.4468C126.172 54.9438 128.056 52.8937 130.737 52.8937C132.369 52.8937 133.356 53.4603 134.202 54.2655L133.202 55.4098C132.494 54.7556 131.735 54.3148 130.722 54.3148C129.029 54.3148 127.801 55.6986 127.801 57.4217V57.4468C127.801 59.1699 129.029 60.5779 130.722 60.5779C131.81 60.5779 132.506 60.1381 133.266 59.4336L134.265 60.439C133.342 61.3951 132.329 61.999 130.674 61.999C128.094 62 126.172 59.9992 126.172 57.472Z" fill="white"/>
<path d="M138.172 53.0447H144.735V54.4285H139.728V56.7172H144.167V58.1011H139.728V60.4642H144.8V61.8481H138.172V53.0447Z" fill="white"/>
<path d="M156.597 54.5533L155.003 54.9942L154.674 53.7361L157.052 52.9813H158.139V61.849H156.597V54.5533Z" fill="white"/>
<path d="M166.916 55.4722V55.447C166.916 54.7677 166.283 54.2152 165.335 54.2152C164.387 54.2152 163.755 54.7687 163.755 55.434V55.4601C163.755 56.227 164.425 56.7685 165.335 56.7685C166.246 56.7675 166.916 56.226 166.916 55.4722ZM167.193 59.3581V59.3329C167.193 58.5278 166.385 58.0004 165.334 58.0004C164.285 58.0004 163.476 58.5288 163.476 59.3329V59.3581C163.476 60.0747 164.171 60.6785 165.334 60.6785C166.498 60.6785 167.193 60.0868 167.193 59.3581ZM161.959 59.4587V59.4346C161.959 58.3647 162.553 57.6985 163.552 57.2838C162.806 56.8933 162.262 56.3025 162.262 55.3212V55.2971C162.262 53.9505 163.565 52.9199 165.335 52.9199C167.105 52.9199 168.409 53.9394 168.409 55.2971V55.3212C168.409 56.3025 167.865 56.8933 167.119 57.2838C168.08 57.7226 168.713 58.3526 168.713 59.3963V59.4215C168.713 60.9936 167.271 61.9738 165.335 61.9738C163.4 61.9738 161.959 60.9674 161.959 59.4587Z" fill="white"/>
<path d="M171.747 60.6534L172.707 59.5342C173.416 60.1874 174.162 60.59 174.985 60.59C176.046 60.59 176.742 59.9861 176.742 59.0682V59.0431C176.742 58.1503 175.983 57.5837 174.908 57.5837C174.275 57.5837 173.731 57.7598 173.277 57.9742L172.341 57.3573L172.595 53.0436H177.88V54.4154H173.935L173.796 56.4776C174.213 56.3267 174.606 56.226 175.2 56.226C176.921 56.226 178.273 57.1318 178.273 58.9927V59.0179C178.273 60.8164 176.958 61.999 174.997 61.999C173.642 61.999 172.581 61.4585 171.747 60.6534Z" fill="white"/>
<path d="M183.381 54.5533L181.787 54.9942L181.458 53.7361L183.835 52.9813H184.923V61.849H183.381V54.5533Z" fill="white"/>
<path d="M189.944 60.126H188.262V61.849H189.944V60.126Z" fill="white"/>
</g>
<defs>
<radialGradient id="paint0_radial_119_755" cx="0" cy="0" r="1" gradientUnits="userSpaceOnUse" gradientTransform="translate(27.6726 7.74025) scale(8.74493 8.99837)">
<stop stop-color="white"/>
<stop offset="1" stop-color="#A8B1BD"/>
</radialGradient>
<radialGradient id="paint1_radial_119_755" cx="0" cy="0" r="1" gradientUnits="userSpaceOnUse" gradientTransform="translate(12.6262 16.616) rotate(26.6321) scale(3.20453 9.30294)">
<stop stop-color="white"/>
<stop offset="0.1944" stop-color="#FAFBFB"/>
<stop offset="0.4221" stop-color="#ECEEF1"/>
<stop offset="0.6666" stop-color="#D4D9DF"/>
<stop offset="0.9212" stop-color="#B4BBC6"/>
<stop offset="1" stop-color="#A8B1BD"/>
</radialGradient>
<linearGradient id="paint2_linear_119_755" x1="34.7408" y1="43.8437" x2="31.2264" y2="12.6495" gradientUnits="userSpaceOnUse">
<stop stop-color="#808B93"/>
<stop offset="0.4753" stop-color="#96A0AA"/>
<stop offset="0.7978" stop-color="#A8B1BD"/>
<stop offset="1" stop-color="#A8B1BD"/>
</linearGradient>
<linearGradient id="paint3_linear_119_755" x1="23.2686" y1="44.6829" x2="9.60596" y2="34.1101" gradientUnits="userSpaceOnUse">
<stop stop-color="#808B93"/>
<stop offset="0.2154" stop-color="#87919A"/>
<stop offset="0.525" stop-color="#99A2AD"/>
<stop offset="0.7268" stop-color="#A8B1BD"/>
<stop offset="1" stop-color="#A8B1BD"/>
</linearGradient>
<linearGradient id="paint4_linear_119_755" x1="41.1126" y1="42.7164" x2="33.9328" y2="3.35807" gradientUnits="userSpaceOnUse">
<stop stop-color="#838C94"/>
<stop offset="0.3632" stop-color="#9BA1A9"/>
<stop offset="0.7978" stop-color="#BCC0C6"/>
<stop offset="0.9052" stop-color="#CBD0D6"/>
<stop offset="1" stop-color="#D3D8DE"/>
</linearGradient>
<linearGradient id="paint5_linear_119_755" x1="31.986" y1="44.3599" x2="24.8144" y2="5.04652" gradientUnits="userSpaceOnUse">
<stop stop-color="#838C94"/>
<stop offset="0.3632" stop-color="#9BA1A9"/>
<stop offset="0.7978" stop-color="#BCC0C6"/>
<stop offset="0.8991" stop-color="#CACDD4"/>
<stop offset="1" stop-color="#D2D5DC"/>
</linearGradient>
<linearGradient id="paint6_linear_119_755" x1="17.5596" y1="47.0016" x2="10.3768" y2="7.62685" gradientUnits="userSpaceOnUse">
<stop stop-color="#838C94"/>
<stop offset="0.3632" stop-color="#9BA1A9"/>
<stop offset="0.7978" stop-color="#BCC0C6"/>
<stop offset="0.8991" stop-color="#CACDD4"/>
<stop offset="1" stop-color="#D2D5DC"/>
</linearGradient>
<linearGradient id="paint7_linear_119_755" x1="39.5488" y1="29.1855" x2="34.673" y2="11.5971" gradientUnits="userSpaceOnUse">
<stop stop-color="#77838C"/>
<stop offset="0.02" stop-color="#77838C"/>
<stop offset="0.6393" stop-color="#808B93"/>
<stop offset="0.98" stop-color="#B2BAC4"/>
<stop offset="1" stop-color="#B2BAC4"/>
</linearGradient>
<radialGradient id="paint8_radial_119_755" cx="0" cy="0" r="1" gradientUnits="userSpaceOnUse" gradientTransform="translate(30.6972 37.6509) scale(8.78114 9.03564)">
<stop stop-color="#D2D5DC"/>
<stop offset="0.4494" stop-color="white"/>
<stop offset="0.4788" stop-color="#F0F1F2"/>
<stop offset="0.5855" stop-color="#BCC2C6"/>
<stop offset="0.6784" stop-color="#96A0A7"/>
<stop offset="0.753" stop-color="#7F8B93"/>
<stop offset="0.8" stop-color="#77838C"/>
<stop offset="1" stop-color="#77838C"/>
</radialGradient>
<linearGradient id="paint9_linear_119_755" x1="20.5084" y1="43.7053" x2="12.413" y2="37.8843" gradientUnits="userSpaceOnUse">
<stop stop-color="#77838C"/>
<stop offset="0.5163" stop-color="#8E99A3"/>
<stop offset="0.9945" stop-color="#A8B1BD"/>
<stop offset="1" stop-color="#A8B1BD"/>
</linearGradient>
<linearGradient id="paint10_linear_119_755" x1="24.4779" y1="8.21065" x2="24.4779" y2="34.2027" gradientUnits="userSpaceOnUse">
<stop stop-color="white"/>
<stop offset="0.3224" stop-color="#F48F95"/>
<stop offset="0.3693" stop-color="#F27083"/>
<stop offset="0.4284" stop-color="#F05070"/>
<stop offset="0.4898" stop-color="#EE3762"/>
<stop offset="0.5535" stop-color="#ED2557"/>
<stop offset="0.6212" stop-color="#EC1A51"/>
<stop offset="0.6995" stop-color="#EC174F"/>
<stop offset="0.9156" stop-color="#D5184B"/>
<stop offset="1" stop-color="#CA1849"/>
</linearGradient>
<linearGradient id="paint11_linear_119_755" x1="17.4324" y1="39.9998" x2="36.3562" y2="14.4213" gradientUnits="userSpaceOnUse">
<stop stop-color="#BC2549"/>
<stop offset="0.1639" stop-color="#BC2549"/>
<stop offset="0.3661" stop-color="#A71E3F"/>
<stop offset="0.7978" stop-color="#C92140"/>
<stop offset="1" stop-color="#EAACB9"/>
</linearGradient>
<linearGradient id="paint12_linear_119_755" x1="33.3122" y1="13.0328" x2="15.0955" y2="36.3055" gradientUnits="userSpaceOnUse">
<stop stop-color="#EF6C77"/>
<stop offset="0.3443" stop-color="#CE254B"/>
<stop offset="0.6284" stop-color="#B21842"/>
<stop offset="0.9303" stop-color="#B31844"/>
<stop offset="1" stop-color="#B51847"/>
</linearGradient>
<linearGradient id="paint13_linear_119_755" x1="24.478" y1="8.32275" x2="24.478" y2="42.3642" gradientUnits="userSpaceOnUse">
<stop stop-color="#F0C9D0"/>
<stop offset="0.5027" stop-color="#A8314F"/>
<stop offset="1" stop-color="#761336"/>
</linearGradient>
<linearGradient id="paint14_linear_119_755" x1="24.479" y1="43.2489" x2="24.479" y2="7.06821" gradientUnits="userSpaceOnUse">
<stop stop-color="#445459"/>
<stop offset="0.1205" stop-color="#4B5A60"/>
<stop offset="0.2941" stop-color="#5E6C73"/>
<stop offset="0.4999" stop-color="#7D8992"/>
<stop offset="0.7268" stop-color="#A8B1BD"/>
<stop offset="1" stop-color="#A8B1BD"/>
</linearGradient>
<linearGradient id="paint15_linear_119_755" x1="35.4073" y1="22.5249" x2="29.2476" y2="18.0953" gradientUnits="userSpaceOnUse">
<stop stop-color="white"/>
<stop offset="1" stop-color="#F9E8EA"/>
</linearGradient>
<linearGradient id="paint16_linear_119_755" x1="28.192" y1="32.5347" x2="22.0012" y2="28.0827" gradientUnits="userSpaceOnUse">
<stop stop-color="white"/>
<stop offset="1" stop-color="#F9E8EA"/>
</linearGradient>
<clipPath id="clip0_119_755">
<rect width="192" height="62" fill="white"/>
</clipPath>
</defs>
</svg>
